<?xml version="1.0" encoding="UTF-8"?>
<!DOCTYPE svg PUBLIC "-//W3C//DTD SVG 1.1//EN" "http://www.w3.org/Graphics/SVG/1.1/DTD/svg11.dtd">
<!-- Creator: CorelDRAW 2019 (64-Bit) -->
<svg xmlns="http://www.w3.org/2000/svg" xml:space="preserve" width="77.1348mm" height="20.405mm" version="1.1" style="shape-rendering:geometricPrecision; text-rendering:geometricPrecision; image-rendering:optimizeQuality; fill-rule:evenodd; clip-rule:evenodd"
viewBox="0 0 2123.72 561.8"
 xmlns:xlink="http://www.w3.org/1999/xlink"
 xmlns:xodm="http://www.corel.com/coreldraw/odm/2003">
 <defs>
  <style type="text/css">
   <![CDATA[
    .fil1 {fill:#C21700}
    .fil0 {fill:#FEFEFE;fill-rule:nonzero}
   ]]>
  </style>
 </defs>
 <g id="Layer_x0020_1">
  <metadata id="CorelCorpID_0Corel-Layer"/>
  <g id="_2275451285616">
   <polygon class="fil0" points="46.5,166.4 46.5,398.92 -0,398.92 -0,166.4 "/>
   <polygon class="fil0" points="127.16,398.92 127.16,166.4 173.66,166.4 313.17,331.33 313.17,166.4 359.68,166.4 359.68,398.92 313.17,398.92 173.66,239.07 173.66,398.92 "/>
   <polygon class="fil0" points="998.18,305.91 998.18,352.42 1184.19,352.42 1184.19,398.92 951.68,398.92 951.68,166.4 1184.19,166.4 1184.19,212.91 998.18,212.91 998.18,259.41 1137.69,259.41 1137.69,305.91 "/>
   <path class="fil0" d="M1311.36 212.91l0 46.5 139.51 0 0 -46.5 -139.51 0zm46.51 93l-46.51 0 0 93.01 -46.5 0 0 -232.51 232.51 0 0 139.51 -82.09 0 82.09 93.01 -57.42 0 -82.09 -93.01z"/>
   <path class="fil0" d="M1578.03 398.92l0 -232.51 232.51 0 0 232.51 -232.51 0zm186.01 -46.5l0 -139.51 -139.51 0 0 139.51 139.51 0z"/>
   <polygon class="fil0" points="2123.72,212.91 1937.7,212.91 1937.7,259.41 2123.72,259.41 2123.72,398.92 1891.2,398.92 1891.2,352.42 2077.21,352.42 2077.21,305.91 1891.2,305.91 1891.2,166.4 2123.72,166.4 "/>
   <path class="fil1" d="M393.4 47.34c-1.21,1.29 -3.44,3.03 -4.16,4.6 -3.56,7.78 4.59,10.66 10.24,12.19 2.22,-1.48 1.22,-1.45 3.96,-3.35 3.71,-2.57 6.07,-5.57 0.4,-9.78 -5.06,-3.76 -2.41,-2.2 -5.96,-2.56l-4.49 -1.11zm-8.09 45.16c-1.62,6.49 7.67,-0.54 0,0zm241.25 -75.87c6.45,1.8 -0.32,-7.69 0,0zm198.32 338.32l0.17 0.03 -0.03 -0 -0.03 -0.01 -0.03 -0.01 -0.03 -0.01 -0.03 -0.01 -0.03 -0.01 -0.03 -0.01 -0.03 -0.01 0.1 0.02zm0.17 0.03l0.19 0.03 -0.03 -0 -0.03 -0.01 -0.03 -0 -0.03 -0.01 -0.03 -0.01 -0.03 -0 0 -0zm1.95 -0.03l0.17 -0.04 0 0 -0.21 0.05 0 0 0.04 -0.01zm0.29 -0.08l0.27 -0.1 0.03 -0.01 0.03 -0.01 0.03 -0.01 0.03 -0.01 0.06 -0.02 0.01 -0 0.02 -0.01 0.03 -0.01 0.03 -0.01 0.03 -0.01 0.03 -0.02 0.03 -0.01 0.02 -0.01 0.01 -0.01 -0.28 0.13 -0.04 0.02 -0.03 0.01 -0.03 0.01 0 0 -0.02 0.01 -0.02 0.01 -0.02 0.01 -0.02 0.01 -0.02 0.01 -0.02 0.01 -0.02 0.01 -0.02 0.01 0 0 -0.02 0.01 -0.02 0.01 -0.02 0.01zm0.67 -0.29l0.01 -0.01 0.04 -0.02 0.03 -0.02 0.03 -0.02 0.03 -0.01 0.01 -0 0.02 -0.01 0.03 -0.02 0 -0 -0.05 0.03 -0.03 0.02 -0.03 0.02 -0.03 0.02 -0.03 0.02 -0.03 0.01zm11.2 -3.87c0.34,0.06 0.69,0.14 1.06,0.23l0.09 0.04 0.09 0.04 0.08 0.04 0.01 0 0.09 0.04 0.09 0.04 0.07 0.04 0.01 0 0.08 0.04 0.08 0.04 0.01 0.01 0.15 0.08 0 0 0.08 0.04 0.06 0.03 0.02 0.01 0.08 0.05 0.07 0.04 0.05 0.03 0.02 0.01 0.07 0.05 0.07 0.05 0.04 0.03 0.03 0.02 0.07 0.05 0.07 0.05 0.04 0.02 0.03 0.02 0.07 0.05 0.07 0.06 0.03 0.02 0.04 0.03 0.06 0.06 0.06 0.06 0.02 0.02 0.04 0.03 0.06 0.06 0.06 0.06 0.02 0.02 0.1 0.1 0.06 0.06 0.01 0.01 0.04 0.05 0.06 0.06 0.05 0.06 0.01 0.01 0.04 0.05 0.05 0.06 0.05 0.07 0.01 0.01 0.04 0.06 0.09 0.12 0.01 0.01 0 0 0.01 0.01 0.08 0.12 0.04 0.07 0 0 0.04 0.07 0.04 0.07 0.04 0.07 0.01 0.01 0.04 0.07 0.04 0.07 0.03 0.06 0.01 0.01 0.04 0.07 0.04 0.07 0.02 0.06 0.01 0.02 0.03 0.08 0.09 0.24 0.03 0.08 0.02 0.05 0.01 0.03 0.03 0.08 0.02 0.08 0.01 0.05 0.01 0.04 0.02 0.08 0.02 0.09 0.06 0.05 0.01 0.01 0.05 0.04 0.03 0.02 0.02 0.02 0.06 0.04 0 0 0.06 0.04 0.02 0.02 0.04 0.03 0.04 0.03 0.01 0.01 0.06 0.05 0.01 0.01 0.08 0.06 0.02 0.02 0.05 0.04 0 0.01 0.06 0.04 0.02 0.01 0.04 0.03 0.04 0.03 0.02 0.01 0.21 0.18 0.01 0.01 0.06 0.05 0.02 0.01 0.04 0.03 0.11 0.09 0.01 0 0.05 0.04 0.03 0.02 0.07 0.06 0.01 0.01 0.05 0.05 0.02 0.01 0.04 0.03 0.04 0.03 0.02 0.01 0.05 0.05 0.01 0 0.05 0.04 0.02 0.02 0.03 0.02 0.05 0.04 0.01 0.01 0.05 0.04 0.01 0.01 0.04 0.03 0.04 0.03 0.02 0.01 0.05 0.05 0 0 0.05 0.04 0.02 0.02 0.03 0.02 0.04 0.04 0.01 0.01 0.05 0.04 0.01 0.01 0.04 0.04 0.03 0.03 0.02 0.02 0.05 0.04 0 0 0.05 0.04 0.02 0.02 0.03 0.02 0.04 0.04 0.01 0.01 0.05 0.05 0.01 0.01 0.04 0.04 0.03 0.03 0.02 0.02 0.05 0.04 0 0 0.05 0.04 0.02 0.02 0.03 0.02 0.04 0.04 0.01 0.01 0.05 0.04 0.01 0.01 0.04 0.03 0.03 0.03 0.02 0.02 0.05 0.04 0.05 0.04 0.02 0.02 0.03 0.02 0.04 0.04 0.01 0.01 0.05 0.04 0.01 0.01 0.04 0.04 0.03 0.03 0.02 0.02 0.05 0.04c1.42,1.3 2.58,2.31 3.5,3 1.23,0.93 2.28,1.6 3.16,2.02 0.88,0.42 1.47,0.75 1.78,0.98 1.15,0.39 3.18,1.2 6.09,2.43 2.91,1.24 5.85,2.6 8.79,4.11 2.95,1.5 5.69,2.97 8.21,4.39 2.53,1.43 3.95,2.25 4.25,2.49 0.76,1.54 0.83,3.03 0.22,4.49 -0.85,1.76 -2.77,2.72 -5.76,2.86 -2.22,-0.23 -5.54,-0.93 -9.94,-2.1 -4.41,-1.16 -7.53,-2.44 -9.36,-3.82 -0.92,-0.7 -1.91,-0.97 -2.99,-0.82 -1.07,0.15 -1.04,0.9 0.11,2.25 1.15,1.34 2.48,2.59 4.01,3.75l2.3 1.73c0.92,0.69 3.79,2.62 8.61,5.78 4.82,3.16 9.95,6.54 15.39,10.17l3.17 2.18 -52.81 9.83 -1.18 -1c-2.64,-2.23 -4.96,-4.58 -6.94,-7.04 -1.37,-2 -3.06,-3.74 -5.05,-5.25l-0.09 -0.07 -0.09 -0.07 -0.09 -0.07 -0.09 -0.07 -0.09 -0.07 -0.09 -0.07 -0.09 -0.07 -0.09 -0.07 -0.09 -0.07 -0.09 -0.07 -0.09 -0.07 -0.09 -0.07 -0.09 -0.07 -0.09 -0.07 -0.09 -0.07 -0.09 -0.07 -0.09 -0.07 -0.09 -0.07 -0.09 -0.07 -0.17 -0.13 -0.09 -0.06 -0.17 -0.13 -0.09 -0.06 -0.09 -0.06 -0.09 -0.07 -0.17 -0.12 -0.08 -0.06 -0.08 -0.06 -0.33 -0.25 -0.08 -0.06 -0.07 -0.05 -0.06 0.06 -0.05 0.04 -0.01 0.01 -0.06 0.06 -0.06 0.06 -0.02 0.02 -0.04 0.04 -0.06 0.06 -0.05 0.04 -0.01 0.01 -0.06 0.06 -0.06 0.06 -0.02 0.02 -0.04 0.04 -0.06 0.06 -0.04 0.04 -0.02 0.01 -0.06 0.06 -0.06 0.06 -0.01 0.01 -0.05 0.04 -0.06 0.06 -0.04 0.04 -0.02 0.02 -0.06 0.06 -0.06 0.06 -0.01 0.01 -0.05 0.04 -0.06 0.06 -0.04 0.04 -0.02 0.02 -0.06 0.06 -0.06 0.06 -0.01 0.01 -0.05 0.05 -0.06 0.06 -0.04 0.04 -0.02 0.02 -0.06 0.06 -0.06 0.06 -0.01 0.01 -0.05 0.05 -0.06 0.06 -0.04 0.04 -0.02 0.02 -0.06 0.06 -0.06 0.06 -0.01 0.01 -0.05 0.05 -0.06 0.06 -0.04 0.04 -0.02 0.02 -0.06 0.06 -0.06 0.06 -0.01 0.01 -0.05 0.05 -0.06 0.06 -0.04 0.03 -0.02 0.02 -0.06 0.06 -0.06 0.06 -0.01 0 -0.06 0.05 -0.06 0.06 -0.04 0.03 -0.02 0.02 -0.06 0.06 -0.06 0.06 -0.01 0 -0.06 0.05 -0.06 0.06 -0.04 0.03 -0.03 0.02 -0.06 0.05 -0.06 0.06 -0 0 -0.06 0.05 -0.06 0.05 -0.03 0.03 -0.03 0.02 -0.06 0.06 -0.06 0.05 -0 0 -0.06 0.05 -0.06 0.05 -0.03 0.03 -0.03 0.03 -0.06 0.05 -0.06 0.06c-3.4,2.86 -6.97,5.5 -10.73,7.93 -3.75,2.43 -7.07,3.99 -9.97,4.69 -0.48,0.12 -2.03,1.12 -4.63,3.02 -2.6,1.9 -5.61,4.28 -9,7.13 -2.91,2.74 -5.92,5.12 -9,7.13 -3.09,2.01 -5.3,3.44 -6.63,4.26 -1.33,0.83 -3.54,2.25 -6.63,4.26 -3.09,2.02 -6.39,4.21 -9.9,6.58 -3.88,2.97 -6.76,5.32 -8.64,7.04 -1.88,1.73 -3.36,2.46 -4.44,2.21 -4.8,-0.89 -6.94,-3.44 -6.42,-7.64 0.62,-1.68 0.42,-2.52 -0.61,-2.53 -1.02,-0.01 -3.52,0.21 -7.5,0.65 -3.01,0.21 -5.75,0.49 -8.22,0.82 -2.47,0.34 -4.91,0.8 -7.32,1.37 -7.24,1.73 -16.05,5.37 -26.45,10.93 -4.11,2.01 -7.74,3.9 -10.88,5.67 -3.15,1.78 -4.96,2.72 -5.44,2.84 -2.55,2.14 1.66,2.67 12.62,1.57 6.5,-0.54 10.56,-0.62 12.18,-0.24 1.62,0.38 2.72,1.77 3.3,4.18 1.04,4.34 -1.33,7.21 -7.12,8.59 -0.97,0.23 -1.96,0.34 -2.98,0.33 -1.02,-0.01 -2.26,0.16 -3.71,0.51 -3.01,0.21 -6.53,0.42 -10.56,0.62 -4.03,0.2 -7.31,0.35 -9.84,0.45 -4.57,0.08 -9.09,0.39 -13.54,0.95 -4.46,0.56 -12.72,2.28 -24.78,5.17 -15.92,3.81 -30.06,7.59 -42.43,11.32 -12.37,3.73 -18.92,6.19 -19.65,7.39 -0.37,0.6 -1.88,1.72 -4.54,3.38 -0.85,0.72 -2.97,1.99 -6.35,3.82 -3.39,1.83 -6.78,4.18 -10.17,7.03 -5.21,3.8 -9.39,6.58 -12.54,8.36 -3.14,1.78 -5.92,2.95 -8.34,3.53 -1.45,0.35 -2.47,0.34 -3.07,-0.03 -2.87,-1.35 -4.11,-3.86 -3.72,-7.52 0.4,-3.67 2.54,-6.99 6.41,-9.96l3.27 -2.31 -14.9 -7.9 -10.85 2.6c-0.97,0.23 -4.16,0.74 -9.58,1.53 -5.42,0.79 -8.42,-0.02 -9,-2.43 -0.23,-0.96 -0.59,-1.39 -1.07,-1.27 -1.45,0.35 -3.64,2.91 -6.57,7.7 -3.3,5.38 -6.64,8.48 -10.02,9.29 -1.45,0.35 -2.77,0.15 -3.96,-0.58 -2.99,-1.83 -4.2,-3.71 -3.65,-5.63 0.56,-1.92 2.73,-5.63 6.51,-11.13 1.95,-2.51 4.51,-6.18 7.69,-11.02 3.18,-4.84 6.23,-9.66 9.17,-14.44 2.93,-4.79 5.53,-8.85 7.79,-12.2 2.26,-3.35 3.63,-5.08 4.11,-5.19 1.93,-0.46 3.63,-1.89 5.09,-4.28 1.47,-2.39 1.97,-4.55 1.51,-6.48 -0.58,-2.41 0.08,-4.99 1.97,-7.74 1.89,-2.75 6.23,-6.98 13.03,-12.69 4.61,-4.17 7.5,-7.03 8.65,-8.58 1.16,-1.55 1.56,-3.05 1.22,-4.5 -0.58,-2.41 -0.35,-4.12 0.68,-5.13 1.04,-1.01 4.04,-3.9 9.02,-8.66 2.06,-2.03 4.71,-5.34 7.95,-9.94 3.23,-4.6 6.87,-10.19 10.9,-16.77l13.2 -21.53 -2.87 -2.37c-4.3,-3.05 -3.54,-7.31 2.29,-12.79 3.39,-2.85 6.92,-7.27 10.59,-13.25 3.67,-5.98 6.72,-10.28 9.15,-12.91 0.73,-1.19 2.14,-3.32 4.22,-6.36 2.07,-3.05 3.97,-6.31 5.69,-9.78l7.53 -13.28 -5.73 -4.75c-3.45,-3.76 -5.05,-6.18 -4.8,-7.26 0.87,-2.76 3.74,-7.78 8.63,-15.07 2.32,-3.11 4.42,-6.04 6.31,-8.79 1.89,-2.74 3.2,-4.72 3.94,-5.91 0.74,-1.2 1.95,-3.02 3.66,-5.47 1.71,-2.45 3.54,-4.93 5.48,-7.43 5.12,-6.33 7.56,-9.97 7.33,-10.94 -0.35,-1.45 -0.76,-2.11 -1.24,-2 -0.96,0.23 -3.69,2.67 -8.19,7.32 -1.21,1.31 -3.1,3.04 -5.64,5.18 -2.55,2.14 -4.79,3.44 -6.72,3.9 -4.82,1.16 -7.7,-0.19 -8.62,-4.06 -0.58,-2.41 0.72,-5.53 3.88,-9.34 3.17,-3.82 9.18,-9.6 18.04,-17.33 12.74,-10.7 23.64,-22.12 32.73,-34.24 9.08,-12.12 17.84,-25.06 26.27,-38.82 1.84,-2.99 3.52,-5.56 5.04,-7.71 1.53,-2.15 2.48,-4.55 2.87,-7.19 0.27,-3.12 0.35,-4.93 0.23,-5.41 0.25,-1.08 0.32,-1.86 0.21,-2.34 -0.23,-0.97 -3.24,-0.76 -9.03,0.63 -2.41,0.58 -5.82,1.27 -10.22,2.07 -4.4,0.8 -8.65,1.18 -12.73,1.14 -3.12,-0.27 -6.26,-0.03 -9.39,0.72 -3.14,0.75 -5.91,1.42 -8.32,2 -8.2,1.96 -13.33,3.96 -15.4,5.99 -1.22,1.31 -1.8,2.09 -1.74,2.33 0.06,0.24 1.04,1.16 2.95,2.74 2.99,1.83 4.72,3.2 5.19,4.11 0.47,0.91 -0.02,2.56 -1.49,4.95l-2.2 3.59 -22.34 -3.83 -8.16 4.25c-3.63,1.89 -8.52,3.83 -14.67,5.81l-0.21 0.07 -0.08 0.02 -0.13 0.04 -0.15 0.05 -0.06 0.02 -0.21 0.07 -0.02 0.01 -0.19 0.06 -0.1 0.03 -0.11 0.04 -0.18 0.06 -0.04 0.01 -0.21 0.07 -0.04 0.01 -0.17 0.06 -0.12 0.04 -0.09 0.03 -0.2 0.06 -0.02 0.01 -0.21 0.07 -0.06 0.02 -0.15 0.05 -0.14 0.04 -0.08 0.02 -0.21 0.07 -0 0 -0.21 0.06 -0.21 0.07 -0.16 0.05 -0.06 0.02 -0.22 0.07 -0.02 0.01 -0.19 0.06 -0.1 0.03 -0.12 0.03 -0.18 0.06 -0.04 0.01 -0.22 0.07 -0.04 0.01 -0.17 0.05 -0.12 0.04 -0.1 0.03 -0.2 0.06 -0.02 0 -0.28 0.09 -0.15 0.04 -0.14 0.04 -0.07 0.02 -0.22 0.06 -0 0 -0.21 0.06 -0.09 0.02 -0.13 0.04 -0.17 0.05 -0.06 0.02 -0.22 0.06 -0.02 0.01 -0.2 0.06 -0.1 0.03 -0.11 0.03 -0.19 0.05 -0.03 0.01 -0.22 0.06 -0.05 0.01 -0.17 0.05 -0.13 0.04 -0.09 0.03 -0.21 0.06 -0.01 0 -0.22 0.06 -0.07 0.02 -0.15 0.04 -0.15 0.04 -0.07 0.02 -0.44 0.12 -0.09 0.02 -0.13 0.04 -0.17 0.05 -0.05 0.01 -0.22 0.06 -0.03 0.01 -0.2 0.05 -0.11 0.03 -0.11 0.03 -0.19 0.05 -0.03 0.01 -0.23 0.06 -0.05 0.01 -0.17 0.05 -0.13 0.04 -0.09 0.02 -0.21 0.06 -0.01 0 -0.22 0.06 -0.07 0.02 -0.15 0.04 -0.15 0.04 -0.07 0.02 -0.23 0.06 -0.01 0 -0.21 0.06 -0.09 0.03 -0.13 0.03 -0.18 0.05 -0.05 0.01 -0.23 0.06 0.05 0.05 0.15 0.17 0.15 0.17 0.15 0.17 0.16 0.17 0.16 0.17 0.16 0.17c3.38,3.67 6.56,7.54 9.53,11.62 2.97,4.07 5.4,7.87 7.29,11.4 1.89,3.53 2.02,6.11 0.39,7.73 -2.18,2.16 -4.61,1.88 -7.32,-0.83l-1.63 -1.63c-0.53,-0.55 -0.87,-1.02 -1,-1.43 -0.14,-0.41 -0.48,-0.88 -1.02,-1.43 -2.16,-2.18 -4.33,-3.67 -6.49,-4.49 -2.17,-0.82 -3.52,-0.96 -4.07,-0.42 -0.81,0.81 -0.68,1.76 0.4,2.85 1.35,1.36 2.84,2.59 4.47,3.67 1.35,0.82 2.71,1.91 4.05,3.27 2.43,2.44 2.57,4.75 0.39,6.92 -2.72,2.7 -6.37,2.01 -10.97,-2.06 -3.25,-2.72 -4.33,-2.99 -3.25,-0.82 1.08,2.17 4.05,5.97 8.92,11.41 5.68,6.8 8.92,10.87 9.73,12.22 0.27,0.82 0.88,1.97 1.83,3.46 0.94,1.5 2.1,2.93 3.44,4.28 2.7,2.71 4.19,4.75 4.46,6.11 0.27,1.36 -0.41,2.85 -2.05,4.47 -1.09,1.08 -2.45,1.49 -4.07,1.21 -1.62,-0.28 -3.12,-1.09 -4.47,-2.45 -1.9,-1.9 -4.26,-3.47 -7.11,-4.69 -2.84,-1.23 -5.89,-2.11 -9.15,-2.67 -2.71,-0.55 -5.08,-1.17 -7.11,-1.85 -2.03,-0.68 -4.54,-2.11 -7.52,-4.29 -2.97,-2.17 -6.83,-5.5 -11.56,-9.99 -4.74,-4.49 -11.3,-10.67 -19.69,-18.55 -5.41,-4.9 -10.14,-9.38 -14.19,-13.46 -4.06,-4.08 -7.71,-7.75 -10.96,-11.01 -3.25,-3.26 -6.02,-6.05 -8.32,-8.36 -2.3,-2.31 -4.12,-4.42 -5.48,-6.32 -1.62,-1.64 -3.04,-3.2 -4.26,-4.69 -1.21,-1.49 -2.23,-2.65 -3.04,-3.46 -1.08,-1.09 -2.03,-1.91 -2.84,-2.45 -0.81,-0.54 -1.36,-0.95 -1.63,-1.22 -1.08,-0.54 -2.98,-1.63 -5.68,-3.27 -2.71,-1.63 -5.42,-3.41 -8.12,-5.31 -2.71,-1.91 -5.22,-3.74 -7.51,-5.51 -2.3,-1.76 -3.59,-2.78 -3.86,-3.06 -0.54,-1.63 -0.4,-3.12 0.42,-4.47 1.09,-1.62 3.12,-2.29 6.11,-2.02 2.17,0.55 5.35,1.71 9.55,3.48l0.04 0.02 0.04 0.01 0.04 0.02 0.04 0.02 0.04 0.01 0.01 0.01 0.03 0.01 0.04 0.02 0.04 0.01 0.04 0.02 0.04 0.02 0.02 0.01 0.01 0.01 0.04 0.02 0.04 0.02 0.04 0.01 0.04 0.02 0.03 0.01 0.01 0 0.04 0.01 0.04 0.02 0.04 0.02 0.04 0.01 0.04 0.02 0.01 0 0.03 0.01 0.04 0.01 0.04 0.02 0.03 0.02 0.04 0.01 0.02 0.01 0.02 0.01 0.04 0.02 0.04 0.01 0.03 0.02 0.04 0.02 0.03 0.01 0.01 0 0.03 0.02 0.04 0.02 0.04 0.01 0.03 0.02 0.04 0.02 0.01 0 0.03 0.01 0.04 0.02 0.03 0.02 0.04 0.01 0.03 0.02 0.02 0.01 0.02 0.01 0.03 0.01 0.03 0.02 0.04 0.02 0.03 0.01 0.03 0.01 0.01 0.01 0.04 0.01 0.03 0.02 0.03 0.02 0.03 0.01 0.04 0.02 0 0 0.03 0.02 0.03 0.01 0.03 0.02 0.03 0.02 0.03 0.01 0.01 0.01 0.02 0.01 0.03 0.01 0.03 0.02 0.03 0.02 0.03 0.01 0.02 0.01 0.01 0.01 0.01 -0.01 0.02 -0.01 0.03 -0.02 0.04 -0.01 0.01 -0 0.02 -0.01 0.03 -0.01 0.03 -0.01 0.01 -0 0.03 -0.01 0.03 -0.01 0.04 -0.01 0.03 -0.01 0.03 -0.01 0.04 -0.01 0.04 -0.02 0.03 -0.01 0.03 -0.01 0.01 -0 0.03 -0.01 0.04 -0.01 0.03 -0.01 0.01 -0 0.03 -0.01 0.04 -0.01 0.02 -0.01 0.01 -0.01 0.04 -0.01 0.04 -0.01 0.02 -0.01 0.02 -0.01 0.04 -0.01 0.04 -0.01 0.01 -0.01 0.02 -0.01 0.04 -0.01 0.04 -0.01 0.01 -0.01 0.02 -0.01 0.04 -0.01 0.04 -0.01 0.01 -0 0.03 -0.01 0.04 -0.01 0.04 -0.01 0 -0 0.03 -0.01 0.04 -0.01 0.04 -0.01 0 0 0.04 -0.01 0.04 -0.01 0.03 -0.01 0.01 -0 0.04 -0.01 0.04 -0.01 0.03 -0.01 0.01 -0 0.04 -0.01 0.04 -0.01 0.02 -0.01 0.01 -0 0.04 -0.01 0.04 -0.01 0.02 -0.01 0.02 -0.01 0.04 -0.01 0.04 -0.01 0.02 -0 0.02 -0.01 0.04 -0.01 0.04 -0.01 0.01 -0 0.02 -0.01 0.04 -0.01 0.04 -0.01 0.01 -0 0.03 -0.01 0.04 -0.01 0.04 -0.01 0 0 0.04 -0.01 0.04 -0.01 0.04 -0.01 0.05 -0.01 0.05 -0.01 0.05 -0.01 0.01 -0 0.04 -0.01 0.05 -0.01 0.05 -0.01 0.02 -0 0.03 -0.01 0.05 -0.01 0.05 -0.01 0.02 -0.01 0.03 -0.01 0.05 -0.01 0.05 -0.01 0.03 -0.01 0.02 -0.01 0.05 -0.01 0.05 -0.01 0.04 -0.01 0.01 -0 0.05 -0.01 0.05 -0.01 0.05 -0.01 0 0 0.05 -0.01 0.05 -0.01 0.05 -0.02 0.01 0 0.04 -0.01 0.05 -0.01 0.05 -0.01 0.02 -0.01 0.04 -0.01 0.05 -0.01 0.05 -0.02 0.02 -0.01 0.03 -0.01 0.05 -0.02 0.05 -0.01 0.03 -0.01 0.02 -0.01 0.05 -0.02 0.05 -0.01 0.04 -0.01 0.01 -0 0.05 -0.02 0.05 -0.02 0.05 -0.01 0.05 -0.02 0.05 -0.02 0.05 -0.02 0.01 -0 0.04 -0.01 0.05 -0.02 0.05 -0.02 0.01 -0.01 0.04 -0.01 0.05 -0.02 0.05 -0.02 0.02 -0.01 0.03 -0.01 0.05 -0.02 0.05 -0.02 0.03 -0.01 0.02 -0.01 0.05 -0.02 0.05 -0.02 0.04 -0.01 0.01 -0.01 0.05 -0.02 0.05 -0.02 0.05 -0.02 0 0 0.05 -0.02 0.05 -0.02 0.05 -0.02 0.01 0 0.04 -0.02 0.05 -0.02 0.05 -0.02 0.01 -0.01 0.04 -0.01 -1.43 -1.44c-0.82,-0.81 -3.39,-3.12 -7.72,-6.93 -4.33,-3.81 -8.93,-7.89 -13.8,-12.23l-2.83 -2.62 53.67 -2.27 1.04 1.16 0.04 0.04 0.04 0.04 0.03 0.04 0.01 0.01 0.04 0.04 0.04 0.04 0.02 0.03 0.01 0.01 0.04 0.04 0.04 0.04 0.02 0.02 0.02 0.02 0.04 0.04 0.04 0.04 0.01 0.01 0.02 0.03 0.04 0.04 0.04 0.04 0.01 0.01 0.03 0.04 0.04 0.04 0.04 0.04 0.04 0.04 0.04 0.04 0.03 0.04 0.01 0.01 0.04 0.04 0.04 0.04 0.02 0.03 0.01 0.01 0.04 0.04 0.04 0.04 0.02 0.02 0.02 0.02 0.04 0.04 0.04 0.04 0.01 0.02 0.02 0.03 0.04 0.04 0.04 0.04 0.01 0.01 0.03 0.04 0.04 -0.02 0.01 -0.01 0.02 -0.01 0.04 -0.02 0.04 -0.02 0.04 -0.02 0.04 -0.01 0.02 -0.01 0.01 -0.01 0.04 -0.02 0.04 -0.02 0.04 -0.02 0.04 -0.02 0.03 -0.01 0.01 -0 0.04 -0.02 0.04 -0.02 0.04 -0.02 0.04 -0.02 0.04 -0.01 0 0 0.04 -0.02 0.04 -0.02 0.04 -0.02 0.04 -0.02 0.04 -0.02 0.01 -0 0.03 -0.01 0.04 -0.02 0.04 -0.02 0.04 -0.02 0.04 -0.02 0.02 -0.01 0.02 -0.01 0.04 -0.02 0.04 -0.02 0.04 -0.02 0.04 -0.02 0.02 -0.01 0.01 -0.01 0.04 -0.02 0.04 -0.02 0.04 -0.02 0.04 -0.02 0.03 -0.01 0 -0 0.04 -0.02 0.04 -0.01 0.04 -0.02 0.04 -0.02 0.04 -0.02 0.01 -0 0.03 -0.01 0.04 -0.02 0.04 -0.02 0.04 -0.02 0.04 -0.02 0.01 -0.01 0.03 -0.01 0.04 -0.02 0.04 -0.02 0.04 -0.02 0.04 -0.02 0.02 -0.01 0.02 -0.01 0.04 -0.01 0.04 -0.02 0.04 -0.02 0.04 -0.02 0.03 -0.01 0.01 -0 0.04 -0.02 0.04 -0.02 0.04 -0.02 0.04 -0.02 0.04 -0.02c4.41,-1.82 10.69,-3.84 18.83,-6.04 8.14,-2.21 19.39,-5.29 33.75,-9.24 9.05,-2.68 17.19,-4.88 24.43,-6.62 7.24,-1.73 13.75,-3.3 19.53,-4.68 5.79,-1.39 10.73,-2.57 14.83,-3.55 4.1,-0.99 7.65,-1.58 10.67,-1.79 2.89,-0.69 5.58,-1.21 8.05,-1.55 2.47,-0.34 4.43,-0.67 5.87,-1.02 1.93,-0.46 3.47,-0.96 4.62,-1.49 1.15,-0.53 1.97,-0.85 2.45,-0.97 1.33,-0.83 3.81,-2.19 7.44,-4.07 3.63,-1.89 7.4,-3.69 11.33,-5.39 3.93,-1.71 7.64,-3.24 11.14,-4.58 3.5,-1.35 5.5,-2.08 5.98,-2.2 2.16,0.5 3.72,1.66 4.66,3.47 1.06,2.3 0.43,5 -1.89,8.11 -2.06,2.02 -5.49,4.76 -10.28,8.2 -4.79,3.44 -8.63,5.51 -11.52,6.21 -1.45,0.35 -2.54,1.12 -3.27,2.31 -0.73,1.19 0.04,1.78 2.33,1.74 2.29,-0.04 4.63,-0.35 7.05,-0.93l3.62 -0.87c1.45,-0.35 5.73,-1.63 12.85,-3.84 7.12,-2.22 14.72,-4.55 22.81,-7 11.46,-3.26 20.75,-5.99 27.87,-8.21 7.12,-2.21 12.82,-3.96 17.11,-5.24 4.28,-1.28 7.78,-2.63 10.5,-4.05 2.72,-1.42 5.36,-3.2 7.9,-5.34 4.73,-3.68 8.54,-5.87 11.43,-6.57 1.45,-0.35 3.07,0.03 4.86,1.13 3.7,2.68 3.72,7.02 0.06,13 -1.84,2.99 -2.79,4.87 -2.85,5.66 -0.07,0.78 0.86,0.94 2.79,0.48 3.86,-0.93 6.31,0.78 7.35,5.13 0.46,1.93 1.18,2.78 2.14,2.55 1.45,-0.34 4.91,-3.98 10.39,-10.91 5.85,-7.52 9.74,-11.52 11.67,-11.98 0.48,-0.12 1.8,0.08 3.96,0.58 4.07,2.09 4.09,6.42 0.05,13 -1.83,2.99 -2.93,4.78 -3.3,5.38 -0.37,0.6 0.1,1.51 1.42,2.72 0.71,0.85 1.37,1.46 1.97,1.83 0.6,0.37 1.01,1.03 1.24,2 0.58,2.41 0.16,5.44 -1.26,9.1 -1.42,3.66 -3.41,7.57 -5.98,11.76 -1.47,2.39 -2.81,4.75 -4.04,7.09 -1.23,2.33 -1.96,4.04 -2.21,5.12 -0.64,3.72 -2.17,5.88 -4.58,6.45 -0.48,0.12 -1.81,-0.08 -3.97,-0.58 -1.19,-0.73 -2.03,-1.04 -2.51,-0.93 -0.97,0.23 -1.82,0.94 -2.55,2.14 -0.74,1.2 -2.08,3.05 -4.03,5.56 -2.32,3.1 -7.18,8.86 -14.61,17.27 -7.42,8.41 -17.08,18.63 -28.99,30.67 -1.7,1.43 -3.59,4.17 -5.68,8.25 -2.08,4.07 -4.02,8.23 -5.81,12.48 -1.79,4.25 -3.21,8.42 -4.27,12.5 -1.07,4.08 -1.42,6.84 -1.08,8.29 0.85,-0.71 2,-1.24 3.44,-1.59 1.33,-0.83 2.67,-1.66 4,-2.49 1.33,-0.83 2.9,-1.72 4.72,-2.66l12.16 -6.74 2.69 1.65c2.98,1.83 4.14,3.98 3.45,6.44 -0.68,2.46 -4,6.19 -9.94,11.18 -5.46,4.88 -11.17,10.84 -17.14,17.88 -5.96,7.04 -9.62,12 -10.97,14.87 -1.24,3.36 -3.69,8.02 -7.36,14.01 -1.83,2.99 -4.83,8.04 -8.99,15.16 -4.16,7.12 -8.14,14.45 -11.94,21.99 -3.92,7.06 -8.57,15.32 -13.96,24.77 -5.39,9.45 -10.15,17.22 -14.31,23.32 -7.82,12.08 -15.18,24.43 -22.11,37.05 -6.92,12.63 -12.25,26.02 -16,40.18l-3.56 13.86 9.06 -3.7c6.53,-2.58 12.11,-4.81 16.76,-6.69 4.65,-1.88 9.34,-4.66 14.07,-8.35 2.66,-1.66 6.05,-3.49 10.16,-5.5 4.11,-2 8.04,-3.71 11.78,-5.12 5.56,-2.35 9.88,-4.54 12.97,-6.55 3.09,-2.02 8.63,-6.53 16.64,-13.55 5.1,-4.28 9.58,-7.91 13.46,-10.88 3.88,-2.97 6.3,-4.57 7.27,-4.8 3.38,-0.81 6.14,0.06 8.28,2.61 2.14,2.55 2.78,5.2 1.91,7.96 -0.5,2.16 -2.73,5.12 -6.68,8.87 -3.95,3.75 -7.92,6.87 -11.91,9.36 -2.66,1.66 -6.17,4.03 -10.54,7.12 -4.36,3.09 -12.3,9.33 -23.82,18.72 -1.21,1.31 -1.7,1.94 -1.46,1.88 0.24,-0.06 1.57,-0.38 3.98,-0.96 0.96,-0.23 3.11,-0.87 6.42,-1.92 3.32,-1.05 6.55,-2.46 9.7,-4.24 2.3,-1.06 4.62,-2 6.98,-2.82 2.35,-0.82 5.22,-1.63 8.6,-2.44 4.82,-1.15 10.79,-2.33 17.9,-3.52 7.11,-1.19 15.84,-2.52 26.21,-3.98 0.96,-0.23 2.08,-0.37 3.34,-0.42 1.26,-0.05 2.38,-0.19 3.34,-0.42 3.38,-0.81 8.03,-2.69 13.95,-5.64l0.05 -0.02 0.04 -0.03 0.05 -0.02 0.01 -0.01 0.03 -0.02 0.05 -0.03 0.04 -0.02 0.02 -0.01 0.02 -0.01 0.05 -0.02 0.04 -0.03 0.03 -0.02 0.01 -0.01 0.05 -0.02 0.04 -0.02 0.04 -0.02 0 0 0.05 -0.03 0.04 -0.02 0.05 -0.02 0.01 -0.01 0.04 -0.02 0.05 -0.02 0.05 -0.02 0.02 -0.01 0.02 -0.02 0.05 -0.02 0.05 -0.02 0.03 -0.02 0.01 -0.01 0.05 -0.02 0.05 -0.02 0.04 -0.02 0.01 -0 0.05 -0.02 0.05 -0.02 0.05 -0.02 0.01 -0.01 0.04 -0.02 0.05 -0.02 0.05 -0.02 0.02 -0.01 0.03 -0.01 0.05 -0.02 0.05 -0.02 0.03 -0.02 0.02 -0.01 0.05 -0.02 0.05 -0.02 0.04 -0.02 0.01 -0 0.05 -0.02 0.05 -0.02 0.05 -0.02 0 -0 0.04 -0.02 0.05 -0.02 0.05 -0.02 0.02 -0.01 0.03 -0.02 0.05 -0.02 0.05 -0.02 0.03 -0.02 0.02 -0.01 0.05 -0.02 0.05 -0.02 0.04 -0.02 0.01 -0.01 0.05 -0.02 0.05 -0.02 0.05 -0.02 0 -0 0.05 -0.02 0.05 -0.02 0.05 -0.02 0.02 -0.01 0.03 -0.02 0.05 -0.02 0.05 -0.02 0.02 -0.01 0.02 -0.01 0.05 -0.02 0.05 -0.02 -0.11 -0.06 -0.01 -0.01 -0.1 -0.05 -0.06 -0.03 -0.05 -0.02 -0.11 -0.06 -0.01 -0 -0.1 -0.06 -0.06 -0.03 -0.06 -0.03 -0.11 -0.06 -0 -0 -0.11 -0.06 -0.05 -0.02 -0.06 -0.03 -0.1 -0.05 -0.01 -0.01 -0.11 -0.06 -0.04 -0.02 -0.07 -0.04 -0.09 -0.05 -0.02 -0.01 -0.11 -0.06 -0.03 -0.02 -0.08 -0.05 -0.09 -0.04 -0.03 -0.02 -0.11 -0.06 -0.02 -0.01 -0.09 -0.05 -0.08 -0.04 -0.04 -0.02 -0.12 -0.06 -0.01 -0.01 -0.1 -0.06 -0.07 -0.04 -0.05 -0.03 -0.12 -0.07 -0.01 -0 -0.11 -0.06 -0.06 -0.04 -0.06 -0.03 -0.12 -0.07 0 -0 -0.12 -0.07 -0.05 -0.03 -0.07 -0.04 -0.11 -0.06 -0.01 -0.01 -0.12 -0.07 -0.04 -0.02 -0.08 -0.05 -0.1 -0.06 -0.02 -0.01 -0.12 -0.07 -0.03 -0.02 -0.09 -0.05 -0.09 -0.05 -0.03 -0.02 -0.12 -0.07 -0.03 -0.01 -0.1 -0.06 -0.08 -0.05 -0.04 -0.02 -0.12 -0.07 -0.02 -0.01 -0.11 -0.06 -0.07 -0.04 -0.05 -0.03 -0.12 -0.08 -0.01 -0 -0.12 -0.07 -0.07 -0.04 -0.06 -0.04 -0.12 -0.07 -0 -0 -0.13 -0.08 -0.06 -0.03 -0.07 -0.04 -0.12 -0.07 -0.01 -0.01 -0.13 -0.08 -0.05 -0.03 -0.08 -0.05 -0.11 -0.07 -0.02 -0.01 -0.13 -0.08 -0.04 -0.02 -0.09 -0.06 -0.1 -0.06 -0.03 -0.02 -0.13 -0.08 -0.03 -0.02 -0.1 -0.06 -0.09 -0.06 -0.04 -0.03 -0.13 -0.08 -0.02 -0.01 -0.11 -0.07 -0.08 -0.05 -0.05 -0.03 -0.13 -0.09 -0.01 -0.01 -0.12 -0.08 -0.07 -0.04 -0.06 -0.04 -0.13 -0.09c-4.21,-2.7 -8.46,-5.66 -12.74,-8.89 -1.84,-1.39 -4.69,-3.66 -8.55,-6.81 -3.86,-3.15 -7.55,-6.54 -11.07,-10.15 -3.52,-3.61 -6.46,-7.03 -8.83,-10.26 -2.37,-3.23 -2.86,-5.76 -1.48,-7.6 1.85,-2.45 4.3,-2.52 7.36,-0.21l1.84 1.39c0.61,0.46 1.01,0.88 1.2,1.27 0.2,0.39 0.59,0.81 1.21,1.27 2.45,1.84 4.8,3.02 7.06,3.53 2.26,0.51 3.62,0.45 4.08,-0.16 0.7,-0.92 0.43,-1.84 -0.79,-2.76 -1.54,-1.16 -3.18,-2.16 -4.94,-3.01 -1.45,-0.62 -2.95,-1.5 -4.48,-2.66 -2.75,-2.08 -3.21,-4.34 -1.36,-6.79 2.31,-3.06 6.03,-2.9 11.16,0.49 3.6,2.24 4.71,2.35 3.33,0.36 -1.38,-2 -4.86,-5.34 -10.44,-10.04 -6.58,-5.92 -10.37,-9.5 -11.36,-10.72 -0.38,-0.77 -1.15,-1.83 -2.29,-3.17 -1.15,-1.35 -2.49,-2.6 -4.02,-3.75 -3.06,-2.31 -4.82,-4.12 -5.28,-5.42 -0.33,-0.95 -0.18,-2.05 0.47,-3.28 3.83,1.62 2.26,0.47 4.2,5.85 6.11,-0.65 3.54,-2.57 9.4,-0.62 8,2.67 21.96,12.73 21.99,12.74 10.03,4.31 1.32,-2.44 12.43,11.99 4.06,5.26 8.13,10.35 14.34,8.96 1.14,-7.88 -9.99,-13.61 -14.34,-17.68 -18.56,-17.29 -15.97,-8.9 -25.23,-17.94 1.27,0.15 2.57,0.25 3.89,0.28 2.76,0.16 5.2,0.43 7.3,0.82 2.11,0.39 4.79,1.45 8.05,3.19 3.25,1.73 7.54,4.49 12.86,8.26 5.32,3.77 12.69,8.96 22.1,15.59 6.04,4.08 11.37,7.85 15.96,11.32 4.59,3.46 8.73,6.58 12.4,9.35 3.67,2.77 6.81,5.14 9.41,7.1l0.06 0.04 0.06 0.04 0.01 0.01 0.04 0.03 0.06 0.04 0.02 0.02 0.03 0.02 0.05 0.04 0.04 0.03 0.02 0.01 0.05 0.04 0.05 0.04 0.01 0 0.05 0.04 0.05 0.04 0.01 0.01 0.04 0.03 0.05 0.04 0.02 0.02 0.03 0.02 0.05 0.04 0.03 0.02 0.02 0.02 0.05 0.04 0.05 0.04 0.01 0.01 0.05 0.04 0.05 0.04 0.01 0.01 0.05 0.04 0.05 0.04 0.02 0.01 0.04 0.02 0.05 0.04 0.03 0.02 0.02 0.02 0.05 0.04 0.04 0.03 0.01 0.01 0.1 0.08 0 0 0.05 0.04 0.05 0.04 0.01 0.01 0.04 0.03 0.05 0.04 0.02 0.02 0.02 0.02 0.05 0.04 0.04 0.03 0.01 0.01 0.05 0.04 0.05 0.04 0 0 0.05 0.04 0.05 0.04 0.01 0.01 0.04 0.03 0.05 0.04 0.02 0.02 0.03 0.02 0.05 0.04 0.03 0.02 0.02 0.01 0.05 0.04 0.04 0.03 0.01 0.01 0.05 0.04 0.05 0.04 0.01 0.01 0.04 0.04 0.05 0.04 0.02 0.01 0.03 0.02 0.05 0.04 0.03 0.02 0.02 0.02 0.05 0.04 0.04 0.03 0.01 0.01 0.05 0.04 0.05 0.04 0 0 0.04 0.04 0.05 0.04 0.01 0.01 0.03 0.03 0.04 0.04 0.02 0.02 0.02 0.02 0.04 0.04 0 0zm-11.01 3.75l0.03 -0.01 0 -0 -0.03 0.02zm0.81 -0.71l0 0 0.02 -0.02 -0.02 0.02zm0.1 -0.12l0 0 0.02 -0.02 -0.02 0.02zm0.07 -0.1l0 0 0.02 -0.03 0.02 -0.02 -0.02 0.02 -0 0 -0.02 0.03zm0.06 -0.08l0 0 0.02 -0.03 0.02 -0.02 -0.02 0.02 -0.02 0.03zm-368.67 -315.69c0.28,-2.81 -0.92,-4.43 -2.4,-6.58 -2.41,-3.52 -1.64,-2.07 -5.4,-3.47 -3.11,-1.16 -7.46,-8.47 -10.72,-3.02 -2.54,4.26 4.08,2.73 7.52,8.37 3.38,5.55 4.22,6.28 10.99,4.7zm-49.78 62.35c5.21,-4.9 1.05,-12.22 -6.51,-9.37 -0.59,3.33 -0.44,7.04 1.69,10.13l4.82 -0.76zm-0.23 47.71c-14.38,-2.96 -6.98,7.61 -6.85,7.7 1.57,1.07 9.91,0.96 6.85,-7.7zm-24.45 -7.52c-3.37,1.94 -3.68,1.61 -2.98,5.58 3.87,0.44 10.99,-1.27 9.48,-6.84 -3.33,-1.37 -3.04,-0.73 -6.51,1.26zm84.77 -71.29c1.65,-0.45 2.49,-0.58 3.93,-1.49 2.58,-1.62 1.92,-1.72 2.14,-3.43 -1.07,-0.93 -2.65,-2.82 -7.06,-0.15 -3.59,2.17 -2.81,6.1 0.99,5.07zm-19.48 -19.63c10.5,-2.39 3.4,-6.92 2.73,-7.05 -1.9,-0.34 -4.67,0.76 -5.12,2.38 -0.6,2.19 1.29,3.2 2.39,4.66zm-80.51 53.75c6.35,1.84 10.72,-5.74 4.15,-5.38 -1.71,0.09 -3.33,0.82 -5.01,1.57l0.86 3.81zm-5.54 60.75c4.61,0.07 8.27,-1.31 7.3,-6.48 -2.23,0.13 -2.94,0.39 -4.96,1.75 -3.74,2.52 -2.89,1.63 -2.34,4.74zm96.75 -96.9l-3.7 0.65c-0.78,8.13 8.63,3.15 3.7,-0.65zm-47.14 -34.04c0.85,3.11 7.06,5.96 10.79,6.11 -1.23,-1.24 -0.21,-0.31 -1.43,-1.18 -1.99,-1.4 -7.22,-4.97 -9.36,-4.93zm-32.43 79.6c-2.51,-0.09 -1.97,-0.52 -4.06,1.47l0.93 3.06 3.92 -1.17 -0.79 -3.36zm72.32 -52.44c-0.51,-1.72 -4.43,-3.35 -5,-0.83 -0.32,1.41 0.88,2.49 2.28,2.62 2.58,0.24 2.52,-1.45 2.72,-1.79zm-68.48 77.83c4.86,0.28 5.23,-6.15 -1.2,-3.51l1.2 3.51zm15.95 -98.99c-0.66,-3.65 -7.01,-1.12 -2.64,2.55 1.36,0.01 3.06,-0.24 2.64,-2.55zm-14.54 28.7c-0.75,1.3 -0.05,2.52 1.25,2.84 2.92,0.72 2.59,-1.32 2.71,-1.47 -0.24,-1.91 -2.5,-3.92 -3.96,-1.37zm-0.07 60.49c5.17,1.75 4.2,-1.36 4.2,-1.37 -1.09,-0.91 -0.13,-1.66 -3.06,-1.08 -4.36,0.86 -1.75,1.13 -2.27,1.74 0.22,-0.01 0.4,0.31 0.56,0.37 0.15,0.07 0.39,0.27 0.58,0.34zm39.39 11.49c-2.97,0.95 -3.8,1.6 -3.38,4.19l4.52 -1.34 -1.14 -2.85zm-17.75 -88.33c-0.44,2.58 1.35,1.99 1.45,2.22l1.3 -0.47c1.8,-4.45 -0.45,-3.09 -0.88,-3.44 -2.18,1.07 -1.53,-0.33 -1.87,1.69zm46.55 12.23c0.13,0.04 -0.32,1.95 2.37,0.07 1.07,-0.75 0.88,-1.51 1.08,-2.88 -3.68,1 -2.82,0.06 -3.44,2.81zm-70.54 28.95c-1.62,6.49 7.67,-0.54 0,0zm40.71 4.19c1.89,-1.29 2.33,-0.93 0.97,-2.81 -0.13,0.18 -0.49,0.22 -0.57,0.33 -1,1.36 -0.75,0.85 -0.4,2.48zm354.21 -78.08c2.48,1.35 4.44,0.87 6.99,0.35 4.18,-0.85 2.54,-0.71 5.3,-3.62 2.28,-2.41 10.7,-3.58 6.95,-8.7 -2.94,-4 -4.1,2.7 -10.64,3.68 -6.43,0.96 -7.43,1.45 -8.6,8.3zm-32.79 -2.65c-0.23,1.69 -0.43,2.52 -0.16,4.2 0.49,3.01 0.84,2.43 2.33,3.3 1.27,-0.62 3.62,-1.35 2.88,-6.45 -0.6,-4.15 -4.52,-4.96 -5.05,-1.05zm25.66 -10.32c-1.88,10.6 5.06,5.82 5.43,5.25 1.05,-1.61 1.11,-4.6 -0.2,-5.64 -1.78,-1.41 -3.45,-0.06 -5.23,0.39zm-20.37 3.01l0.84 -3.66c-7.19,-3.88 -6.26,6.72 -0.84,3.66zm9.15 -4.01c1.78,0.2 4.81,-2.78 2.71,-4.29 -1.18,-0.84 -2.63,-0.16 -3.3,1.08 -1.22,2.29 0.36,2.89 0.59,3.2zm-3.57 -0.37c-0.09,0.11 -1.67,-1.05 -0.99,2.15 0.27,1.28 1.05,1.39 2.23,2.11 0.51,-3.79 1.04,-2.63 -1.24,-4.26zm-83.93 12.93c1.84,3.43 1.51,3.72 5.49,3.13 0.55,-3.86 -0.96,-11.02 -6.57,-9.67 -1.46,3.29 -0.82,3.02 1.07,6.54zm-37.58 14.18c2.02,-6.3 -5.44,-10.87 -5.26,-4.3 0.05,1.72 0.73,3.35 1.43,5.06l3.84 -0.75zm60.57 7.23c0.2,-4.61 -1.07,-8.31 -6.28,-7.48 0.07,2.23 0.31,2.95 1.61,5 2.41,3.8 1.55,2.94 4.67,2.48zm-50.83 -18.61c-0.16,2.51 -0.58,1.95 1.36,4.09l3.09 -0.85 -1.06 -3.95 -3.38 0.7zm25.48 -3.12c0.42,-4.85 -6,-5.4 -3.54,1.11l3.54 -1.11zm-9.75 -1.61c1.89,-5.12 -1.24,-4.23 -1.25,-4.24 -0.94,1.07 -1.66,0.08 -1.16,3.03 0.74,4.38 1.08,1.78 1.67,2.32 -0.01,-0.22 0.32,-0.39 0.39,-0.55 0.07,-0.15 0.28,-0.38 0.35,-0.57zm-35.7 1.35c6.45,1.8 -0.32,-7.69 0,0zm110.41 271.07c4.49,-2.02 4.67,-2.09 1.99,-7.3l-3.5 1.29c-1.02,4.15 -0.57,3.39 1.5,6.01zm89.08 67.36l0.03 0 -0.03 0zm0.03 0l0.03 0 -0.03 0zm0.03 0l0.03 -0 -0.03 0zm0.03 -0l0.03 0 -0.03 0zm0.03 0l0.12 -0.01 -0.12 0.01zm0.12 -0.01l0.02 -0 -0.02 0zm0.02 -0l0.07 -0 -0.07 0zm0.07 -0l0.03 -0 -0.03 0zm0.03 -0l0.03 -0 -0.03 0zm0.03 -0l0.03 -0 -0.03 0zm0.03 -0l0.03 -0 -0.03 0zm0.03 -0l0.03 0 -0.03 0zm0.03 0l0 -0 0 0zm0 -0l0.03 -0 -0.03 0zm0.03 -0l0.03 -0 -0.03 0zm0.03 -0l0.03 -0.01 -0.03 0.01zm0.03 -0.01l0.03 -0 -0.03 0zm0.03 -0l0.03 -0 -0.03 0zm0.03 -0l0.03 -0.01 -0.03 0.01zm0.03 -0.01l0.03 -0 -0.03 0zm0.03 -0l0.03 -0.01 -0.03 0.01zm0.03 -0.01l0 0 -0 0zm0 0l0.02 -0.01 -0.02 0.01zm0.02 -0.01l0.01 0 -0.01 0zm0.01 0l0.02 -0 -0.02 0zm0.02 -0l0.03 -0.01 -0.03 0.01zm0.03 -0.01l0.03 -0.01 -0.03 0.01zm0.03 -0.01l0.03 -0.01 -0.03 0.01zm0.03 -0.01l0.03 -0.01 -0.03 0.01zm0.03 -0.01l0.02 -0.01 -0.02 0.01zm0.02 -0.01l0.03 -0.01 -0.03 0.01zm2.06 -1.23l0.01 -0.02 -0.01 0.02zm0.01 -0.02l0.01 -0.01 -0.01 0.01zm0.01 -0.01l0.02 -0.02 -0.02 0.02zm0.02 -0.02l0.02 -0.02 -0.02 0.02zm0.02 -0.02l0.02 -0.02 -0.02 0.02zm0.04 -0.05l0.02 -0.02 -0.02 0.02zm0.02 -0.02l0.02 -0.02 -0.02 0.02zm0.02 -0.02l0 -0 -0 0zm0 -0l0.01 -0.02 -0.01 0.02zm0.05 -0.07l0.02 -0.02 -0.02 0.02zm0.05 -0.08l0.01 -0.01 -0.01 0.01zm0.01 -0.01l0.01 -0.01 -0.01 0.01zm-94.6 -39.92c1.16,-4.04 -1.39,-2.59 -1.48,-2.99l-2.67 0.59c-0.29,3.73 -1.31,2.03 1.73,4.42 1.46,-0.84 1.92,-0.26 2.42,-2.02zm-11.17 -4.52c1.17,-4.57 -1.37,-2.96 -1.62,-3.22 -2.68,1.49 -5.39,4.13 -0.71,4.73 0.99,0.13 2.08,-0.55 2.33,-1.52zm-244.13 208.32c-1.85,14.56 8.12,6.37 8.2,6.24 0.95,-1.64 0.2,-9.96 -8.2,-6.24zm-5.62 24.96c2.19,3.21 1.89,3.54 5.79,2.54 0.13,-3.9 -2.11,-10.86 -7.54,-8.93 -1.11,3.42 -0.5,3.09 1.75,6.39zm-35.89 18.04c1.35,-6.47 -6.55,-10.24 -5.69,-3.73 0.23,1.7 1.08,3.25 1.95,4.88l3.74 -1.15zm61 0.85c-0.29,-4.61 -1.94,-8.15 -7.03,-6.78 0.3,2.21 0.61,2.9 2.13,4.8 2.8,3.53 1.85,2.76 4.9,1.97zm-52.5 -13.18c0.1,2.51 -0.37,2 1.78,3.93l2.98 -1.16 -1.47 -3.81 -3.29 1.05zm25.02 -5.78c-0.09,-4.87 -6.54,-4.74 -3.4,1.47l3.4 -1.47zm-9.87 -0.58c1.35,-5.29 -1.68,-4.08 -1.69,-4.08 -0.83,1.16 -1.65,0.26 -0.84,3.14 1.2,4.28 1.26,1.66 1.91,2.13 -0.03,-0.22 0.27,-0.43 0.33,-0.58 0.06,-0.16 0.24,-0.41 0.29,-0.6zm310.89 -420.03c0.76,10.4 6.56,3.3 6.59,3.19 0.43,-1.28 -1.26,-6.97 -6.59,-3.19zm-0.41 18.18c1.98,1.93 1.81,2.2 4.39,0.96 -0.45,-2.73 -3,-7.27 -6.51,-5.16 -0.29,2.54 0.09,2.22 2.12,4.21zm-22.47 17.61c0.03,-4.7 -6,-6.22 -4.48,-1.8 0.4,1.15 1.21,2.11 2.04,3.12l2.44 -1.33zm42.62 -7.98c-0.85,-3.17 -2.49,-5.4 -5.85,-3.74 0.52,1.5 0.84,1.93 2.16,3.05 2.45,2.07 1.68,1.67 3.69,0.69zm-38.43 -1.81c0.43,1.73 0.02,1.44 1.8,2.49l1.91 -1.23 -1.56 -2.45 -2.15 1.19zm16.62 -7.54c-0.75,-3.38 -5.22,-2.39 -2.16,1.5l2.16 -1.5zm-6.96 0.98c0.2,-3.87 -1.75,-2.6 -1.75,-2.6 -0.41,0.92 -1.11,0.41 -0.15,2.3 1.43,2.81 1.11,0.98 1.63,1.22 -0.05,-0.15 0.13,-0.34 0.15,-0.45 0.02,-0.12 0.11,-0.32 0.12,-0.46zm-39.74 145.27c0.35,-0.18 0.72,-0.32 1.12,-0.41l-0.12 1.07c-0.37,-0.26 -0.7,-0.48 -1,-0.66z"/>
  </g>
 </g>
</svg>
