<?xml version="1.0" encoding="UTF-8"?>
<!DOCTYPE svg PUBLIC "-//W3C//DTD SVG 1.1//EN" "http://www.w3.org/Graphics/SVG/1.1/DTD/svg11.dtd">
<!-- Creator: CorelDRAW 2019 (64-Bit) -->
<svg xmlns="http://www.w3.org/2000/svg" xml:space="preserve" width="108.276mm" height="21.7112mm" version="1.1" style="shape-rendering:geometricPrecision; text-rendering:geometricPrecision; image-rendering:optimizeQuality; fill-rule:evenodd; clip-rule:evenodd"
viewBox="0 0 10813.38 2168.26"
 xmlns:xlink="http://www.w3.org/1999/xlink"
 xmlns:xodm="http://www.corel.com/coreldraw/odm/2003">
 <defs>
  <style type="text/css">
   <![CDATA[
    .fil0 {fill:#FEFEFE}
    .fil1 {fill:#FEFEFE;fill-rule:nonzero}
   ]]>
  </style>
 </defs>
 <g id="Layer_x0020_1">
  <metadata id="CorelCorpID_0Corel-Layer"/>
  <g id="_1835535242176">
   <polygon class="fil0" points="-0,0 1950.57,0 975.29,1681.34 "/>
   <polygon class="fil0" points="2925.86,2168.26 975.29,2168.26 1950.57,486.94 "/>
   <polygon class="fil1" points="3510.89,1519.94 3735.06,1519.94 3735.06,479.34 3510.89,479.34 "/>
   <polygon class="fil1" points="4077.12,1519.94 4299.78,1519.94 4299.78,847.41 4801.15,1519.94 5025.32,1519.94 5025.32,479.34 4801.15,479.34 4801.15,1151.86 4299.78,479.34 4077.12,479.34 "/>
   <polygon class="fil1" points="5296.86,1519.94 6155.7,1519.94 6155.7,1318.48 5602.84,1318.48 6149.64,648.99 6149.64,479.34 5307.47,479.34 5307.47,680.79 5842.16,680.79 5295.35,1350.29 "/>
   <polygon class="fil1" points="7270.9,680.79 7270.9,479.34 6469.63,479.34 6469.63,1519.94 7270.9,1519.94 7270.9,1318.48 6693.8,1318.48 6693.8,1089.76 7216.38,1089.76 7216.38,888.31 6693.8,888.31 6693.8,680.79 "/>
   <path class="fil1" d="M8464.87 1519.94l-255.98 -363.53c142.38,-49.98 236.29,-171.16 236.29,-325.66 0,-206 -166.62,-351.41 -392.3,-351.41l-468.04 0 0 1040.6 222.66 0 0 -337.78 165.1 0 237.81 337.78 254.47 0zm-657.38 -836.12l221.15 0c110.57,0 186.3,57.56 186.3,146.93 0,89.37 -75.73,146.93 -186.3,146.93l-221.15 0 0 -293.85z"/>
   <path class="fil1" d="M9235.18 1556.29c301.42,0 552.87,-246.89 552.87,-539.23 0,-292.34 -251.45,-537.72 -552.87,-537.72 -298.4,0 -552.87,245.38 -552.87,537.72 0,292.33 254.47,539.23 552.87,539.23zm0 -202.97c-174.19,0 -322.64,-154.5 -322.64,-336.26 0,-180.25 148.44,-334.76 322.64,-334.76 175.71,0 324.14,154.51 324.14,334.76 0,181.76 -148.43,336.26 -324.14,336.26z"/>
   <path class="fil1" d="M10408.95 1556.29c254.46,0 404.43,-131.78 404.43,-330.21 0,-192.37 -148.44,-259.02 -372.62,-309 -160.56,-36.35 -222.67,-60.59 -222.67,-136.32 0,-62.1 57.56,-112.09 152.99,-112.09 99.97,0 204.48,40.91 296.88,115.12l116.64 -160.56c-106.03,-90.88 -237.81,-143.89 -407.45,-143.89 -227.21,0 -384.73,131.78 -384.73,324.14 0,201.45 156.01,263.56 375.65,313.55 159.04,36.35 219.63,59.07 219.63,133.29 0,65.13 -57.56,116.63 -169.65,116.63 -131.79,0 -243.87,-51.49 -342.33,-136.32l-128.75 152.99c121.18,112.08 281.74,172.67 461.99,172.67z"/>
  </g>
 </g>
</svg>
